<svg width="20" height="20" viewBox="0 0 20 20" fill="none" xmlns="http://www.w3.org/2000/svg">
<path d="M13.7506 3.25001C13.7506 3.0511 13.8297 2.86033 13.9703 2.71968C14.111 2.57903 14.3017 2.50001 14.5006 2.50001L16.0006 2.50001V1.00001C16.0006 0.801098 16.0797 0.610333 16.2203 0.469681C16.361 0.329028 16.5517 0.250011 16.7506 0.250011C16.9495 0.250011 17.1403 0.329028 17.281 0.469681C17.4216 0.610333 17.5006 0.801098 17.5006 1.00001V2.50001H19.0006C19.1995 2.50001 19.3903 2.57903 19.531 2.71968C19.6716 2.86033 19.7506 3.0511 19.7506 3.25001C19.7506 3.44892 19.6716 3.63969 19.531 3.78034C19.3903 3.92099 19.1995 4.00001 19.0006 4.00001H17.5006V5.50001C17.5006 5.69892 17.4216 5.88969 17.281 6.03034C17.1403 6.17099 16.9495 6.25001 16.7506 6.25001C16.5517 6.25001 16.361 6.17099 16.2203 6.03034C16.0797 5.88969 16.0006 5.69892 16.0006 5.50001V4.00001H14.5006C14.3017 4.00001 14.111 3.92099 13.9703 3.78034C13.8297 3.63969 13.7506 3.44892 13.7506 3.25001ZM19.6156 8.37626C19.9583 10.413 19.6448 12.506 18.7203 14.353C17.7959 16.2 16.3085 17.7054 14.4727 18.6518C12.6369 19.5983 10.5479 19.9369 8.50714 19.6187C6.46641 19.3005 4.5796 18.342 3.11915 16.8815C1.65869 15.421 0.700165 13.5342 0.381957 11.4935C0.0637483 9.45277 0.402327 7.36371 1.34881 5.52795C2.29529 3.69218 3.80069 2.20471 5.64767 1.2803C7.49464 0.355887 9.58761 0.0423685 11.6244 0.385011C11.8191 0.41944 11.9923 0.52935 12.1064 0.690833C12.2204 0.852316 12.2661 1.05231 12.2335 1.24731C12.2009 1.4423 12.0926 1.61653 11.9322 1.73209C11.7717 1.84766 11.5722 1.8952 11.3769 1.86439C10.1939 1.66538 8.98173 1.72655 7.82477 2.04364C6.66782 2.36073 5.59385 2.92613 4.67762 3.70048C3.76139 4.47483 3.02491 5.43954 2.51942 6.52746C2.01393 7.61538 1.75158 8.80039 1.75064 10C1.74886 12.0196 2.49112 13.969 3.83564 15.4759C4.6721 14.2638 5.84828 13.3261 7.21626 12.7806C6.48143 12.2019 5.94522 11.4085 5.6822 10.5109C5.41918 9.61321 5.44242 8.65591 5.74869 7.77209C6.05495 6.88826 6.62903 6.12184 7.39107 5.57941C8.15311 5.03698 9.06525 4.74549 10.0006 4.74549C10.936 4.74549 11.8482 5.03698 12.6102 5.57941C13.3722 6.12184 13.9463 6.88826 14.2526 7.77209C14.5589 8.65591 14.5821 9.61321 14.3191 10.5109C14.056 11.4085 13.5198 12.2019 12.785 12.7806C14.153 13.3261 15.3292 14.2638 16.1656 15.4759C17.5102 13.969 18.2524 12.0196 18.2506 10C18.2507 9.53889 18.2124 9.07855 18.1363 8.62376C18.119 8.5262 18.1213 8.42619 18.1429 8.3295C18.1645 8.23281 18.2051 8.14136 18.2622 8.06044C18.3194 7.97951 18.392 7.91072 18.4759 7.85802C18.5598 7.80533 18.6533 7.76978 18.751 7.75343C18.8488 7.73709 18.9488 7.74026 19.0452 7.76278C19.1417 7.78529 19.2328 7.8267 19.3132 7.88461C19.3936 7.94252 19.4617 8.01579 19.5136 8.10017C19.5655 8.18456 19.6002 8.2784 19.6156 8.37626ZM10.0006 12.25C10.594 12.25 11.174 12.0741 11.6673 11.7444C12.1607 11.4148 12.5452 10.9462 12.7723 10.3981C12.9993 9.84988 13.0587 9.24668 12.943 8.66474C12.8272 8.0828 12.5415 7.54825 12.122 7.12869C11.7024 6.70913 11.1679 6.42341 10.5859 6.30766C10.004 6.1919 9.40076 6.25131 8.85259 6.47837C8.30441 6.70544 7.83587 7.08995 7.50623 7.5833C7.17658 8.07665 7.00064 8.65667 7.00064 9.25001C7.00064 10.0457 7.31671 10.8087 7.87932 11.3713C8.44193 11.9339 9.20499 12.25 10.0006 12.25ZM10.0006 18.25C11.8319 18.2519 13.6112 17.6414 15.0556 16.5156C14.5131 15.6671 13.7656 14.9688 12.8822 14.4851C11.9988 14.0014 11.0078 13.7478 10.0006 13.7478C8.99346 13.7478 8.00248 14.0014 7.11906 14.4851C6.23564 14.9688 5.4882 15.6671 4.94564 16.5156C6.39004 17.6414 8.16936 18.2519 10.0006 18.25Z" fill="#565E6C"/>
</svg>
